#!OML:ASF E:\emotionWalksFemale\Project 1\Capture day 1\Session 1\Female1.ASF
:FULLY-SPECIFIED
:DEGREES
1237
root 9.77706 15.4707 -32.1881 -354.398 -1.2577 -0.12995
lowerback 12.1024 1.37776 -1.8204
upperback -2.20582 1.40235 -1.75121
thorax -9.17642 0.719298 -1.12419
lowerneck 2.78332 -12.359 -12.9889
upperneck -6.81278 -16.558 12.9336
head -0.278525 -8.3495 5.78115
rclavicle -1.5207e-014 7.95139e-015
rhumerus -19.2468 32.8423 -109.51
rradius 31.3572
rwrist 19.8041
rhand 0.976402 -59.7267
rfingers 7.12502
rthumb 26.5253 -807.89
lclavicle -1.5207e-014 7.95139e-015
lhumerus -51.5445 -58.3893 140.998
lradius 102.049
lwrist 22.54
lhand 30.1806 -23.8523
lfingers 7.12502
lthumb 53.8693 -4.92627
rfemur -12.0426 -2.36562 24.8634
rtibia 60.6375
rfoot 5.08274 -7.36442
rtoes -5.02496
lfemur -20.8852 -7.12959 -25.1503
ltibia 27.738
lfoot -18.0989 9.65234
ltoes -8.51786
1238
root 9.79066 15.4726 -32.0958 -354.753 -1.47793 0.0919467
lowerback 12.2567 1.3991 -2.00359
upperback -2.10693 1.38936 -1.86357
thorax -9.1603 0.718836 -1.14073
lowerneck 2.96099 -12.2401 -12.8163
upperneck -6.73286 -16.4263 12.5013
head -0.355151 -8.28035 5.65173
rclavicle -1.2424e-014 9.54166e-015
rhumerus -19.6312 33.6898 -109.95
rradius 31.8007
rwrist 17.5863
rhand -1.7101 -58.7665
rfingers 7.12502
rthumb 23.9514 -807.292
lclavicle -1.2424e-014 9.54166e-015
lhumerus -51.814 -58.2902 141.25
lradius 102.249
lwrist 22.5645
lhand 29.6259 -22.8097
lfingers 7.12502
lthumb 53.3703 -3.55463
rfemur -13.1654 -2.14109 24.3348
rtibia 62.9038
rfoot 5.60748 -7.09113
rtoes -6.39647
lfemur -20.0489 -6.84952 -25.6001
ltibia 27.633
lfoot -18.5213 9.69894
ltoes -8.44896
1239
root 9.80335 15.4667 -32.0161 -354.973 -1.55554 0.344305
lowerback 12.4016 1.32665 -2.06731
upperback -2.084 1.26158 -2.04656
thorax -9.21729 0.65473 -1.27897
lowerneck 3.30789 -12.0177 -12.8505
upperneck -6.63789 -16.1776 12.3536
head -0.424258 -8.1611 5.64932
rclavicle -4.27387e-015 5.56597e-015
rhumerus -19.3946 32.4746 -109.726
rradius 31.7088
rwrist 19.2246
rhand 0.961345 -55.5832
rfingers 7.12502
rthumb 26.5108 -803.748
lclavicle -4.27387e-015 5.56597e-015
lhumerus -51.8898 -58.0142 141.173
lradius 102.416
lwrist 23.1446
lhand 30.1549 -22.4165
lfingers 7.12502
lthumb 53.8462 -3.47498
rfemur -14.4867 -1.97674 23.8241
rtibia 65.0674
rfoot 5.70276 -6.58494
rtoes -7.73712
lfemur -19.3714 -6.64103 -26.0705
ltibia 27.5775
lfoot -18.8249 9.53052
ltoes -8.23708
1240
root 9.81434 15.4587 -31.938 -355.188 -1.67168 0.529681
lowerback 12.8113 1.31607 -2.17951
upperback -2.09292 1.20297 -2.16441
thorax -9.46549 0.62824 -1.34273
lowerneck 2.83233 -11.8907 -12.7508
upperneck -5.9383 -15.9974 11.8794
head -0.216267 -8.05085 5.44541
rclavicle 3.71727e-014 -2.46493e-014
rhumerus -19.7991 33.4108 -110.178
rradius 32.0983
rwrist 16.2737
rhand -3.32237 -53.6924
rfingers 7.12502
rthumb 22.4045 -802.413
lclavicle 3.71727e-014 -2.46493e-014
lhumerus -52.2862 -58.065 141.589
lradius 102.203
lwrist 22.3362
lhand 27.4744 -23.5352
lfingers 7.12502
lthumb 51.4226 -3.09281
rfemur -15.8179 -1.70916 23.4061
rtibia 67.0706
rfoot 5.24589 -5.92406
rtoes -8.93268
lfemur -18.8817 -6.41832 -26.45
ltibia 27.6229
lfoot -18.8152 9.44882
ltoes -7.81888
1241
root 9.82356 15.4565 -31.8546 -355.392 -1.86509 0.580078
lowerback 12.8681 1.40018 -2.14859
upperback -2.04139 1.30537 -2.31742
thorax -9.43743 0.670744 -1.54632
lowerneck 2.91963 -11.7319 -12.3585
upperneck -5.76763 -15.7963 11.4013
head -0.277245 -7.94886 5.26457
rclavicle -6.36111e-015 1.43125e-014
rhumerus -19.9953 33.3646 -110.412
rradius 32.4488
rwrist 15.2832
rhand -4.57949 -53.3671
rfingers 7.12502
rthumb 21.1974 -802.228
lclavicle -6.36111e-015 1.43125e-014
lhumerus -52.3306 -58.0209 141.566
lradius 102.502
lwrist 23.3333
lhand 29.6803 -22.8629
lfingers 7.12502
lthumb 53.4193 -3.63968
rfemur -17.1128 -1.2991 23.1592
rtibia 68.8625
rfoot 4.36423 -5.35851
rtoes -10.0956
lfemur -18.4681 -6.14358 -26.6562
ltibia 27.7898
lfoot -18.9579 9.39788
ltoes -7.74819
1242
root 9.83392 15.4508 -31.7686 -355.58 -1.97795 0.519515
lowerback 12.6308 1.40862 -2.03538
upperback -1.84622 1.34651 -2.35206
thorax -9.0823 0.684054 -1.64208
lowerneck 3.17939 -11.5399 -12.3041
upperneck -5.74208 -15.57 11.224
head -0.357073 -7.83904 5.23476
rclavicle -1.04362e-014 5.56597e-015
rhumerus -20.0172 33.535 -110.449
rradius 32.662
rwrist 14.7638
rhand -4.69374 -53.3861
rfingers 7.12502
rthumb 21.0876 -802.259
lclavicle -1.04362e-014 5.56597e-015
lhumerus -51.9264 -58.0567 141.274
lradius 102.745
lwrist 24.0776
lhand 31.5472 -22.6404
lfingers 7.12502
lthumb 55.0923 -4.56868
rfemur -18.3632 -0.909882 23.0696
rtibia 70.4569
rfoot 3.44329 -4.84005
rtoes -10.4744
lfemur -18.0457 -5.95012 -26.7514
ltibia 28.0164
lfoot -19.2452 9.53483
ltoes -9.0485
1243
root 9.84615 15.4374 -31.6834 -355.765 -1.99323 0.439524
lowerback 12.5689 1.35804 -1.68636
upperback -1.73817 1.32747 -2.48935
thorax -8.91709 0.653577 -1.97699
lowerneck 3.19936 -11.3577 -12.2259
upperneck -5.48972 -15.3402 11.055
head -0.332722 -7.72353 5.17746
rclavicle 3.34952e-014 -3.10104e-014
rhumerus -19.9548 33.28 -110.532
rradius 32.7026
rwrist 14.7411
rhand -4.87025 -53.053
rfingers 7.12502
rthumb 20.9181 -801.945
lclavicle 3.34952e-014 -3.10104e-014
lhumerus -52.4724 -58.2623 141.712
lradius 102.855
lwrist 23.4057
lhand 30.0845 -23.0932
lfingers 7.12502
lthumb 53.7829 -4.10941
rfemur -19.6139 -0.596422 23.0306
rtibia 71.9092
rfoot 2.31683 -4.60487
rtoes -11.0342
lfemur -17.6579 -5.86702 -26.8409
ltibia 28.3221
lfoot -19.4041 10.0119
ltoes -11.463
1244
root 9.85634 15.4255 -31.6004 -355.974 -2.04344 0.420431
lowerback 12.921 1.32558 -1.46138
upperback -1.80755 1.29518 -2.61383
thorax -9.18884 0.620989 -2.24535
lowerneck 3.21953 -11.1707 -12.127
upperneck -5.12604 -15.1098 10.7847
head -0.285256 -7.60628 5.08328
rclavicle 8.44835e-015 2.14687e-014
rhumerus -20.0603 32.6643 -110.602
rradius 32.7809
rwrist 15.6864
rhand -3.40976 -53.8498
rfingers 7.12502
rthumb 22.3207 -802.581
lclavicle 8.44835e-015 2.14687e-014
lhumerus -52.713 -58.1076 141.836
lradius 102.857
lwrist 23.7134
lhand 30.0655 -23.0944
lfingers 7.12502
lthumb 53.7658 -4.09925
rfemur -20.8463 -0.214184 22.9321
rtibia 73.2026
rfoot 1.14264 -4.82573
rtoes -11.5889
lfemur -17.2964 -5.86477 -26.9615
ltibia 28.6978
lfoot -19.5241 10.5181
ltoes -12.2775
1245
root 9.86515 15.4093 -31.5214 -356.144 -2.14431 0.362838
lowerback 13.1411 1.29089 -1.33005
upperback -1.76871 1.26137 -2.64539
thorax -9.27077 0.596151 -2.35284
lowerneck 2.88828 -11.0147 -12.1162
upperneck -4.57754 -14.895 10.4627
head -0.122449 -7.48768 4.95537
rclavicle -1.39149e-014 -1.59028e-015
rhumerus -19.8891 32.0311 -110.368
rradius 32.7094
rwrist 17.4494
rhand -0.51486 -55.0993
rfingers 7.12502
rthumb 25.0971 -803.47
lclavicle -1.39149e-014 -1.59028e-015
lhumerus -52.4687 -58.1641 141.719
lradius 102.996
lwrist 23.7021
lhand 29.4855 -22.1909
lfingers 7.12502
lthumb 53.2438 -2.85418
rfemur -22.1264 0.237545 22.8802
rtibia 74.335
rfoot 0.122318 -5.1201
rtoes -11.7944
lfemur -16.969 -5.88304 -27.0207
ltibia 29.0446
lfoot -19.8543 10.7609
ltoes -11.3086
